<svg xmlns="http://www.w3.org/2000/svg" width="52.2" height="53.3" viewBox="0 0 52.2 53.3"><g fill="#FFF"><path d="M40.4 16.5V0h-7.8v15.3h1.1c2.3 0 4.5.4 6.7 1.2zM29.4 5.4h-7.6v14c2.2-1.7 4.9-2.9 7.6-3.6V5.4zM18.6 22.5V12h-7.8v26.2h3.6c-.2-1-.3-2.2-.3-3.4.1-4.7 1.6-9 4.5-12.3zM0 18.1h7.6v20H0zM21.8 38.1s0 .1 0 0zM49.3 34.7c0-6.1-3.7-11.5-8.9-14-2.2-1-4.4-1.5-6.8-1.5h-1.1c-1 .1-2.2.3-3.2.5-2.9.8-5.6 2.6-7.6 4.9-1.5 1.8-2.7 3.8-3.2 6.1-.5 1.3-.6 2.6-.6 4 0 1.2.1 2.4.3 3.4 1.6 7.1 7.8 12.3 15.2 12.3V34.7h15.9zm-16.7-3.2h-2.2v15.2c-4.2-1.1-7.4-4.4-8.6-8.6-.2-1.1-.5-2.2-.5-3.3 0-1.2.2-2.3.5-3.4 1-3.8 3.9-6.9 7.6-8.2 1-.4 2.2-.6 3.2-.7h1.1c2.5 0 4.8.7 6.8 2 2.4 1.6 4.3 4.2 5.2 7.1H32.6zM43.8 51.5c2.8-1.6 5.2-4 6.7-6.9-1.6 2.8-3.9 5.2-6.7 6.9z"/><path d="M40.3 38.1H37v15.2c2.4 0 4.7-.7 6.8-1.9 2.8-1.7 5.1-4.1 6.8-6.9 1.1-2 1.7-4.2 1.7-6.4h-12z"/></g></svg>