<svg id="Layer_1" xmlns="http://www.w3.org/2000/svg" viewBox="0 0 173 156.7"><style>.st0{fill:#fff}</style><path class="st0" d="M14.6 96.4v6.8zM14.6 109v6.8-7.1zM18.7 86.9H18c-1.7 0-3.4 1.4-3.4 3.4v.7c0-.7.4-4.1 4.1-4.1zM30.7 131.5s-.3 3.4-2.4 5.8c1.3-1.3 2.4-3.4 2.4-5.8zM14.6 121.3v6.8zM63.7 48.3h22.2c3.8 0 6.5-3.1 6.5-6.5 0-3.8-3.1-6.5-6.5-6.5H63.7c-3.8 0-6.5 3.1-6.5 6.5.1 3.8 2.8 6.5 6.5 6.5zM131.6 89.9H63.7c-3.8 0-6.5 3.1-6.5 6.5 0 3.8 3.1 6.5 6.5 6.5h67.9c3.8 0 6.5-3.1 6.5-6.5 0-3.8-3.1-6.5-6.5-6.5zM28.3 137.3c-1.4 1.4-3.1 2-5.1 2.4 2.3-.3 4.1-1 5.1-2.4zM131.6 62.6H63.7c-3.8 0-6.5 3.1-6.5 6.5 0 3.8 3.1 6.5 6.5 6.5h67.9c3.8 0 6.5-3.1 6.5-6.5 0-3.7-3.1-6.5-6.5-6.5z"/><path class="st0" d="M173.5 86.9V56.2H166v-7.5h6.8V15.3H165C162.6 8.8 156.5 4 149.3 4H47.4c-9.2 0-16.7 7.5-16.7 16.7v52.8h-13C8.5 73.6 1 81.1 1 90.3v41.6c0 11.6 9.5 21.1 21.1 21.1h114.6c14.3 0 26.3-10.6 28.3-24.2h7.8V95.4h-7.5v-8.5h8.2zm-142.8.3V132.2c0 2.4-1 4.4-2.4 5.8-1 1-2.7 2-5.1 2.4h-.3s-5.5.7-7.8-6.1v-44c0-1.7 1.4-3.4 3.4-3.4h13v.3h-.8zm122 37.2c0 8.5-6.8 15.3-15.3 15.3H42.6c1-2.4 1.7-5.1 1.7-8.2V20.7c0-1.7 1.4-3.4 3.4-3.4h101.9c1.7 0 3.4 1.4 3.4 3.4v103.7h-.3z"/></svg>