<svg xmlns="http://www.w3.org/2000/svg" width="128.1" height="116" viewBox="0 0 128.1 116"><path fill="none" stroke="#00B7D3" stroke-width="2.5" stroke-linecap="round" stroke-linejoin="round" stroke-miterlimit="10" d="M59 69.8c7.2.8 19.5 6 24.4 10.4 10.5 9.2 14.7 11.6 16 11.3M102 22.5c-3.1.4-5.2 2.6-7.2 4.6-4.5 4.6-9.7 8.9-15.9 11.9s-12.9 7.3-20 6.4"/><path fill="none" stroke="#00828E" stroke-width="2.5" stroke-linecap="round" stroke-linejoin="round" stroke-miterlimit="10" d="M51.4 74.2H23.2c-1.9 0-3.4-1.5-3.4-3.4V43c0-1.9 1.5-3.4 3.4-3.4h28.3c1.9 0 3.8 1.5 3.8 3.4v27.8c-.1 1.9-2 3.4-3.9 3.4z"/><path fill="none" stroke="#00B7D3" stroke-width="2.5" stroke-linecap="round" stroke-linejoin="round" stroke-miterlimit="10" d="M16.4 59.9V46c-4.4 1.4-7.6 5.4-7.6 10.3s3.2 8.9 7.6 10.3l3.2.3"/><path fill="none" stroke="#00828E" stroke-width="2.5" stroke-linecap="round" stroke-linejoin="round" stroke-miterlimit="10" d="M48.2 74.6l7.3 24.8.8 4.1s-.4 1.4-2.4 2.8-5.3.4-5.3.4L30.3 74.6"/><path fill="none" stroke="#00B7D3" stroke-width="2.5" stroke-linecap="round" stroke-linejoin="round" stroke-miterlimit="10" d="M98.6 24.6c0-1.3 1-2.3 2.3-2.3 1.3 0 2.3 1 2.3 2.3v65.6c0 1.3-1 2.3-2.3 2.3-1.3 0-2.3-1-2.3-2.3V24.6M19.8 66.8c.1 1.5-.2 2.6.1 4.1.2 1.5.6 2.6 2 3.2.6.2 1.3.3 2 .3 2.3.1 4.6.1 6.8.2 5.6 9.7 7.6 14.1 11.6 20.8 1.1 1.8 1.8 3.2 2.9 5.1 2 3.4 2.2 4.4 3.7 5.9 1.5 1.4 3.7 1.9 4.9.2"/></svg>