<svg xmlns="http://www.w3.org/2000/svg" width="65.2" height="48.6" viewBox="0 0 65.2 48.6"><path fill="none" d="M58.1 48.6h7.1v-7.1c0 3.9-3.2 7.1-7.1 7.1zM4.6 14v23.6c0 1.7 1.4 3.1 3.1 3.1 1.7 0 3.1-1.4 3.1-3.1v-2.3H7.9v-3.2h2.9V28H7.9v-3.2h2.9v-4.2H7.9v-3.2h2.9v-5.3H6.9c-1.1.1-2 .9-2.3 1.9zM0 36.1v12.6h11.9C3.5 48.6 0 43.6 0 36.1z"/><path fill="none" d="M0 0v14.3c0-1.5.5-2.9 1.2-4 1.3-1.9 3.5-3.2 5.9-3.2h3.6C10.8 3.2 14 0 17.9 0H58c3.9 0 7.1 3.2 7.1 7.1V0H0z"/><path fill="none" d="M58.3 5.1H19.2c-1.3 0-2.3 1-2.3 2.3v31.7c0 2.8-2.2 5-4.9 5.2h43.5c2.9 0 5.2-2.3 5.2-5.2V7.4c-.1-1.3-1.1-2.3-2.4-2.3zM21.5 9.6h14.9v19.7H21.5V9.6zm34.6 28.1H21.5v-3h34.6v3zm0-8.4h-15v-3H56v3zm0-8.4h-15v-3H56v3zm0-8.4h-15v-3H56v3z"/><path fill="#FFF" d="M58.1 0H17.9c-3.9 0-7.1 3.2-7.1 7.1H7.2c-2.5 0-4.7 1.3-5.9 3.2-.8 1.1-1.2 2.5-1.2 4v21.8c0 7.5 3.5 12.6 11.9 12.6h46.2c3.9 0 7.1-3.2 7.1-7.1V7.1C65.2 3.2 62 0 58.1 0zM10.8 17.5H7.9v3.2h2.9v4.2H7.9V28h2.9v4.2H7.9v3.2h2.9v2.3c0 1.7-1.4 3.1-3.1 3.1-1.7 0-3.1-1.4-3.1-3.1V14c.2-1 1.2-1.8 2.3-1.8h3.9v5.3zm49.8 21.6c0 2.9-2.3 5.2-5.2 5.2H11.9c2.7-.1 4.9-2.4 4.9-5.2V7.4c0-1.3 1-2.3 2.3-2.3h39.1c1.3 0 2.3 1 2.3 2.3v31.7z"/><path fill="#FFF" d="M21.5 9.6h14.9v19.7H21.5zM41.1 9.5H56v3H41.1zM41.1 17.9H56v3H41.1zM41.1 26.3H56v3H41.1zM21.5 34.7h34.6v3H21.5z"/></svg>