<svg width="63" height="58" viewBox="0 0 63 58" xmlns="http://www.w3.org/2000/svg"><g fill="#FFF" fill-rule="evenodd"><path d="M51.297 0H34.183C28.271 0 23.47 5.227 23.47 11.348c0 1.077.845 2.086 1.89 2.086.2 0 .4.023.6-.046.867-.298 1.267-1.238 1.267-1.994 0-1.972.778-3.714 2.133-5.113 1.312-1.352 3.023-1.925 4.823-1.925h17.292c3.823 0 7.201 3.049 7.201 7.084v11.21c0 4.035-3.356 7.84-7.29 7.84h-13.09c-.623 0-1.268-.092-1.89.23-.4.206-.778.343-1.111.71l-6.49 6.58c-.111.114-.223.114-.356-.046a18.347 18.347 0 0 0-1.845-2.087c1.867-2.407 2.756-5.41 2.512-8.528-.445-5.708-4.779-10.316-10.269-10.98-.466-.046-.91-.092-1.378-.092-6.445 0-11.69 5.41-11.69 12.035 0 2.751.911 5.365 2.578 7.52C3.845 40.256.822 47.822.222 56.258c-.044.596.156.78.534 1.215.4.435.933.275 1.511.275h30.36c.578 0 1.112.137 1.512-.298.378-.436.578-.825.533-1.399-.378-5.226-1.667-10.064-3.734-14.167-.177-.367-.11-.734.178-1.032l6.712-6.831c.223-.23.467-.115.667-.115h12.98c5.823 0 10.535-5.181 10.535-11.164v-11.12C62.01 5.526 57.143 0 51.297 0zM17.47 36.13c-4.178 0-7.556-3.508-7.556-7.818s3.4-7.794 7.556-7.794c4.179 0 7.58 3.507 7.58 7.794-.023 4.31-3.423 7.818-7.58 7.818zm-6.045 2.613c1.69 1.032 3.712 1.674 6.045 1.674 2.423 0 4.401-.665 6.046-1.651 3.423 3.164 6 9.812 6.868 15.772H4.556c.867-5.937 3.445-12.608 6.868-15.795z"/><path d="M35.228 19.028h16.87c1.11 0 1.888-1.055 1.888-2.064 0-1.008-.777-2.063-1.889-2.063h-16.87c-1.11 0-1.866 1.055-1.866 2.063 0 1.01.756 2.064 1.867 2.064zM35.228 25.447h11.78c1.11 0 1.889-1.055 1.889-2.064 0-1.008-.778-2.063-1.89-2.063h-11.78c-1.11 0-1.866 1.055-1.866 2.063 0 1.01.756 2.064 1.867 2.064zM35.228 12.609h16.87c1.11 0 1.888-.94 1.888-1.949 0-1.009-.777-1.949-1.889-1.949h-16.87c-1.11 0-1.866.94-1.866 1.95 0 1.008.756 1.948 1.867 1.948z"/></g></svg>