<svg id="Layer_1" xmlns="http://www.w3.org/2000/svg" viewBox="0 0 500 500"><style>.st0{fill:#fff}</style><path class="st0" d="M451.7 214.7l-110.4 83.7L381.4 431c1.5 5-.2 10.1-4.2 13-4.3 3-9.8 3-13.9.2l-113.7-79.1-113.7 79.1c-4.1 2.8-9.7 2.8-13.7-.2-4.1-3-5.9-8.1-4.4-13.1l40.1-132.6-110.5-83.6c-4-3-5.7-8.3-4.1-13.1 1.6-4.8 6-8.1 11.1-8.2l138.5-2.8 45.5-130.8c1.7-4.8 6.2-8 11.2-8 5 0 9.5 3.2 11.2 8l45.5 130.8 138.5 2.8c5 .1 9.5 3.4 11 8.1 1.6 4.8-.1 10.2-4.1 13.2zm44.8-26.4c-7.2-22-27.6-37.1-50.8-37.6l-108.8-2.2-35.8-102.8C293.4 23.7 272.7 9 249.5 9c-23.2 0-43.9 14.8-51.6 36.7l-35.7 102.8-108.8 2.2c-23.2.5-43.6 15.6-50.8 37.8-7.1 22.1.6 46.4 19 60.3l86.7 65.8-31.5 104.1c-6.7 22.2 1.4 46.4 20.1 60 18.5 13.4 44.7 13.7 63.3.6l89.3-62.1 89.4 62.1c9.3 6.4 20.1 9.8 31.1 9.8 11.4 0 22.5-3.6 32.1-10.4 18.7-13.6 26.9-37.7 20.2-60l-31.5-104.1 86.7-65.7c18.5-14.1 26.1-38.4 19-60.6z"/></svg>