<svg xmlns="http://www.w3.org/2000/svg" width="69.1" height="58" viewBox="0 0 69.1 58"><path fill="#FFF" d="M68.2 50l-8.4-8.4c2.4-3.2 3.8-7.3 3.8-11.6 0-8.5-5.5-15.8-13.1-18.4v-9C50.5 1.2 49.4 0 48 0H9.5C8.1 0 7 1.2 7 2.6v52.8C7 56.8 8.1 58 9.5 58H48c1.4 0 2.5-1.2 2.5-2.6v-6.9c1.9-.7 3.6-1.6 5.2-2.8l-1.9-1.9-.2-.2c-1-1.1-.9-2.8.2-3.9-1.1 1.1-1.1 2.8-.2 3.9l.2.2 1.9 1.9 8.4 8.4c.6.6 1.3.8 2 .8s1.5-.3 2-.8c1.2-1.1 1.2-2.9.1-4.1zm-7.4-20c0 1.4-.2 2.7-.5 4 .3-1.3.5-2.6.5-4 0-6.7-4-12.5-9.7-15.1 5.7 2.7 9.7 8.4 9.7 15.1zM45.5 52.9H12V5.1h33.4v5.5h-1.2c-3.3 0-6.5.9-9.2 2.3H17.3v3.9H30c-1.4 1.5-2.6 3.2-3.5 5.1h-9.3v3.9h8c-.3 1.3-.5 2.8-.5 4.3v.8h-7.5v3.9h8.1c.5 1.9 1.2 3.6 2.1 5.2H17.3v3.8h13.2c3.5 3.6 8.4 5.8 13.8 5.8h1.2v3.3zm5-10.7c-1.5.8-3.2 1.4-5.1 1.5-.4 0-.8.1-1.2.1-.9 0-1.8-.1-2.7-.3-2.7-.5-5-1.8-6.8-3.5-1.5-1.5-2.6-3.2-3.4-5.2-.4-1.2-.7-2.5-.8-3.9v-.8c0-1.5.2-2.9.7-4.3.5-1.3 1.1-2.7 2-3.9 1.9-2.5 4.5-4.3 7.6-5.1.2-.1.4-.1.7-.2.8-.2 1.7-.3 2.7-.3.4 0 .8 0 1.2.1 1.9.2 3.6.7 5.1 1.5 4.4 2.3 7.3 6.9 7.3 12.2.1 5.2-2.9 9.8-7.3 12.1z"/></svg>