<svg xmlns="http://www.w3.org/2000/svg" width="54.4" height="54.4" viewBox="0 0 54.4 54.4"><g fill="#FFF"><path d="M27.2 0C12.2 0 0 12.2 0 27.2s12.2 27.2 27.2 27.2 27.2-12.2 27.2-27.2S42.2 0 27.2 0zm0 49.4C15 49.4 5 39.5 5 27.2 5 15 15 5 27.2 5s22.2 10 22.2 22.2c0 12.3-9.9 22.2-22.2 22.2z"/><path d="M34.3 11.9l-11.1 8.4c-2 1.5-3.9 4.9-4.2 7.4l-1.5 13.8c-.3 2.5 1.2 3.3 3.2 1.8l11.1-8.4c2-1.5 3.9-4.9 4.2-7.4l1.5-13.8c.3-2.6-1.2-3.4-3.2-1.8zM31 29.6c-1.1 1.9-3.5 2.6-5.5 1.5-1.9-1.1-2.6-3.5-1.5-5.5 1.1-1.9 3.5-2.6 5.5-1.5 1.9 1.1 2.6 3.5 1.5 5.5z"/></g></svg>