<svg xmlns="http://www.w3.org/2000/svg" width="87.4" height="86.9" viewBox="0 0 87.4 86.9"><path fill="none" stroke="#FB0" stroke-width="2" stroke-miterlimit="10" d="M32.6 21.8V17c0-2.3 1.9-4.2 4.2-4.2h3.6c2.3 0 4.2 1.9 4.2 4.2v4.8c0 2.3-1.9 4.2-4.2 4.2h-3.6c-2.3.1-4.2-1.8-4.2-4.2z"/><path fill="none" stroke="#FF8F00" stroke-width="2" stroke-linecap="round" stroke-linejoin="round" stroke-miterlimit="10" d="M7.4 59.1V30.3c0-6.6 5.4-11.9 11.9-11.9h7.1c6.6 0 11.9 5.4 11.9 11.9v28.8c0 6.6-5.4 11.9-11.9 11.9h-7.1c-6.5.1-11.9-5.3-11.9-11.9z"/><path fill="none" stroke="#FB0" stroke-width="2" stroke-miterlimit="10" d="M45.9 34.4v-4.8c0-2.3 1.9-4.2 4.2-4.2h3.6c2.3 0 4.2 1.9 4.2 4.2v4.8c0 2.3-1.9 4.2-4.2 4.2h-3.6c-2.3 0-4.2-1.9-4.2-4.2zM26.6 54.3v-4.8c0-2.3 1.9-4.2 4.2-4.2h3.6c2.3 0 4.2 1.9 4.2 4.2v4.8c0 2.3-1.9 4.2-4.2 4.2h-3.6c-2.3 0-4.2-1.9-4.2-4.2z"/><path fill="none" stroke="#FB0" stroke-width="2" stroke-miterlimit="10" d="M13.6 47v-4.8c0-2.3 1.9-4.2 4.2-4.2h22.9c2.3 0 4.2 1.9 4.2 4.2V47c0 2.3-1.9 4.2-4.2 4.2H17.8c-2.3 0-4.2-1.9-4.2-4.2zM39.8 72.3v-4.8c0-2.3 1.9-4.2 4.2-4.2h3.6c2.3 0 4.2 1.9 4.2 4.2v4.8c0 2.3-1.9 4.2-4.2 4.2H44c-2.4 0-4.2-1.9-4.2-4.2zM52.8 54v-4.8c0-2.3 1.9-4.2 4.2-4.2h3.6c2.3 0 4.2 1.9 4.2 4.2V54c0 2.3-1.9 4.2-4.2 4.2H57c-2.3 0-4.2-1.9-4.2-4.2zM59.1 21.2v-4.8c0-2.3 1.9-4.2 4.2-4.2h3.6c2.3 0 4.2 1.9 4.2 4.2v4.8c0 2.3-1.9 4.2-4.2 4.2h-3.6c-2.3 0-4.2-1.9-4.2-4.2z"/><path fill="none" stroke="#FB0" stroke-width="2" stroke-miterlimit="10" d="M60 62.7V58c0-2.3 1.9-4.2 4.2-4.2h3.6c2.3 0 4.2 1.9 4.2 4.2v4.8c0 2.3-1.9 4.2-4.2 4.2h-3.6c-2.3 0-4.2-1.9-4.2-4.3z"/></svg>